<svg xmlns="http://www.w3.org/2000/svg" viewBox="0 0 168 168">
  <g fill="none" fill-rule="evenodd">
    <circle cx="84" cy="84" r="84" fill="#ED5565" fill-rule="nonzero"/>
    <path fill="#57A863" d="M86.22 49.6l7.38 22.57c.3.95 1.2 1.6 2.2 1.6h23.86c1 0 1.9.63 2.22 1.6.3.95-.03 2-.85 2.6l-19.28 13.87c-.82.58-1.17 1.64-.85 2.6l7.37 22.5c.3.97-.04 2.02-.86 2.6-.8.6-1.9.6-2.7 0L85.4 105.6c-.83-.6-1.94-.6-2.76 0l-19.3 13.9c-.8.6-1.92.6-2.73 0-.8-.57-1.14-1.62-.83-2.6l7.37-22.47c.33-.96-.02-2-.84-2.6L47 77.96c-.83-.58-1.18-1.64-.86-2.6.3-.96 1.2-1.6 2.22-1.6H72.2c1 0 1.9-.64 2.2-1.6l7.4-22.56c.3-.95 1.2-1.6 2.2-1.6 1 0 1.9.65 2.22 1.6z"/>
  </g>
</svg>
