<svg xmlns="http://www.w3.org/2000/svg" viewBox="0 0 168 168" xmlns:xlink="http://www.w3.org/1999/xlink">
  <defs>
    <circle id="a" cx="84" cy="84" r="84"/>
  </defs>
  <g fill="none" fill-rule="evenodd">
    <mask id="b" fill="#fff">
      <use xlink:href="#a"/>
    </mask>
    <use fill="#4758A9" fill-rule="nonzero" xlink:href="#a"/>
    <g mask="url(#b)">
      <path fill="#4758A9" fill-rule="nonzero" d="M-4-2h96v96H-4z"/>
      <path fill="#F5F7FA" d="M85-6L96 5 3 98-8 87"/>
      <path fill="#F5F7FA" d="M3-6L-8 5l93 93 11-11"/>
      <path fill="#ED5565" d="M87.8-3.3l5.5 5.5-93 93-5.6-5.4"/>
      <path fill="#ED5565" d="M.2-3.3l-5.5 5.5 93 93 5.6-5.4"/>
      <path fill="#F5F7FA" fill-rule="nonzero" d="M36-2h16v96H36z"/>
      <path fill="#F5F7FA" d="M-4 54V38h96v16"/>
      <path fill="#ED5565" fill-rule="nonzero" d="M40-2h8v96h-8z"/>
      <path fill="#ED5565" d="M-4 50v-8h96v8"/>
    </g>
    <path fill="#FFF" d="M65.2 108.8l4 11.3c0 1 .5 1 1 1h12.6c.5 0 1 .5 1 1 .3.4 0 1-.3 1.3l-10.2 7c-.4.3-.6.8-.4 1.3l3.5 11.3c0 .4 0 1-.5 1.2-.3.3-1 .3-1.3 0l-10.3-7c-.4-.3-1-.3-1.4 0l-10 7c-.4.3-1 .3-1.4 0-.4-.3-.6-1-.5-1.3l4-11.4c0-.5 0-1-.2-1.3l-10.2-7c-.4-.2-.6-1-.4-1.2.3-.4.8-1 1.3-.7H58c.4 0 1-.5 1-1l4-11.3c0-.5.6-.8 1-.8s1 0 1.3.6zM135 54.6l3 8.8c.2.4.6.6 1 .6h10c.4 0 .8.2 1 .6 0 .4 0 .8-.4 1l-8 5.4c-.5.2-.6.7-.5 1l3.5 8.8c0 .4 0 .8-.4 1-.3.3-1 .3-1 0l-8.2-5.4c-.4-.2-.8-.2-1.2 0l-8 5.4c-.4.3-1 .3-1.2 0-.4-.2-.5-.6-.4-1l3-8.8c0-.3 0-.8-.5-1l-8-5.4c-.4-.2-.6-.6-.4-1 .4-.4.8-.6 1-.6h10c.6 0 1-.3 1-.6l3-8.8c.4-.4.8-.7 1-.7s1 0 1 .3z" mask="url(#b)"/>
  </g>
</svg>
