<svg xmlns="http://www.w3.org/2000/svg" viewBox="0 0 168 168" xmlns:xlink="http://www.w3.org/1999/xlink">
  <defs>
    <circle id="a" cx="84" cy="84" r="84"/>
  </defs>
  <g fill="none" fill-rule="evenodd">
    <mask id="b" fill="#fff">
      <use xlink:href="#a"/>
    </mask>
    <use fill="#4758A9" fill-rule="nonzero" xlink:href="#a"/>
    <g mask="url(#b)">
      <path fill="#4758A9" fill-rule="nonzero" d="M-4-2h96v96H-4z"/>
      <path fill="#F5F7FA" d="M85.06-6.03L96.03 4.94l-93.1 93.1-10.96-10.98"/>
      <path fill="#F5F7FA" d="M2.94-6.03L-8.03 4.94l93.1 93.1 10.96-10.98"/>
      <path fill="#ED5565" d="M87.8-3.3l5.48 5.5L.2 95.3l-5.5-5.5"/>
      <path fill="#ED5565" d="M.2-3.3l-5.5 5.5 93.1 93.1 5.48-5.5"/>
      <path fill="#F5F7FA" fill-rule="nonzero" d="M36-2h16v96H36z"/>
      <path fill="#F5F7FA" d="M-4 54V38h96v16"/>
      <path fill="#ED5565" fill-rule="nonzero" d="M40-2h8v96h-8z"/>
      <path fill="#ED5565" d="M-4 50v-8h96v8"/>
    </g>
    <path fill="#ED5565" d="M65.17 108.8l3.88 11.28c.18.5.65.82 1.17.8h12.55c.5-.02 1 .3 1.16.78.17.5 0 1.03-.44 1.32l-10.2 6.94c-.5.28-.6.82-.5 1.3l3.8 11.26c.12.5-.08 1.03-.5 1.32-.45.3-1 .28-1.43-.03l-10.1-6.97c-.43-.3-1-.3-1.44 0L53 143.76c-.46.3-1 .32-1.4.03-.47-.3-.67-.9-.5-1.4l3.9-11.3c.1-.5-.07-1-.5-1.3l-10.14-6.9c-.4-.3-.6-.9-.43-1.3.2-.5.67-.8 1.2-.8H57.7c.53 0 1-.38 1.18-.8l3.88-11.3c.2-.5.67-.8 1.2-.8.5 0 .97.3 1.16.8zm69.76-54.22l3.1 8.8c.16.37.53.62.94.6H149c.42-.03.8.22.94.6.14.4 0 .82-.35 1.05l-8.2 5.4c-.4.2-.5.63-.4 1l3.1 8.78c.1.4-.1.9-.4 1.1-.4.3-.8.2-1.1 0l-8.2-5.4c-.35-.2-.8-.2-1.16 0l-8.12 5.5c-.35.26-.8.27-1.13.04-.36-.23-.5-.64-.4-1.04l3.1-8.78c.12-.4 0-.8-.37-1l-8.14-5.4c-.3-.26-.47-.7-.33-1.08.12-.4.5-.64.9-.6H129c.4 0 .78-.24.93-.6l3.1-8.8c.16-.4.53-.65.94-.65.4 0 .77.25.92.64z" mask="url(#b)"/>
  </g>
</svg>
