<svg xmlns="http://www.w3.org/2000/svg" viewBox="0 0 168 168" xmlns:xlink="http://www.w3.org/1999/xlink">
  <defs>
    <circle id="a" cx="84" cy="84" r="84"/>
  </defs>
  <g fill="none" fill-rule="evenodd">
    <mask id="b" fill="#fff">
      <use xlink:href="#a"/>
    </mask>
    <use fill="#FFF" fill-rule="nonzero" xlink:href="#a"/>
    <path fill="#ED5565" fill-rule="nonzero" d="M0 58h168v27.8H0zm0 62.3h168v27.5H0zM0-4h168v27.5H0z" mask="url(#b)"/>
    <path fill="#4A89DC" fill-rule="nonzero" d="M-6-2h92v88H-6z" mask="url(#b)"/>
    <path fill="#FFF" d="M39.8 9.3l5.8 17.5c.2.7 1 1.2 1.7 1.2h19c.6 0 1.4.5 1.6 1.3 0 .7 0 1.6-1 2L52 42c-.6.5-1 1.4-.7 2l6 17.6c0 .8-.2 1.6-.8 2-.7.5-1.5.5-2.2 0L39 52.8c-.6-.5-1.4-.5-2 0L21.6 63.6c-.7.5-1.5.5-2.2 0-.6-.4-1-1.2-.7-2l6-17.5c0-.4-.2-1.2-.8-2L8.6 31.6c-.7-.4-1-1.3-.7-2 .4-.8 1-1.3 2-1.3h19c.6 0 1.3-.4 1.5-1l6-17.7c0-.7.8-1.2 1.6-1.2s1.7.6 2 1.4z" mask="url(#b)"/>
  </g>
</svg>
