<svg xmlns="http://www.w3.org/2000/svg" viewBox="0 0 168 168" xmlns:xlink="http://www.w3.org/1999/xlink">
  <defs>
    <circle id="a" cx="84" cy="84" r="84"/>
  </defs>
  <g fill="none" fill-rule="evenodd">
    <mask id="b" fill="#fff">
      <use xlink:href="#a"/>
    </mask>
    <use fill="#FFF" fill-rule="nonzero" xlink:href="#a"/>
    <path fill="#8CBAE2" fill-rule="nonzero" d="M0 112h168v56H0zM0 0h168v56H0z" mask="url(#b)"/>
    <path fill="#F6BB42" d="M98.2 89c0-.8.2-1.6.6-2.2l1-1.8c.3-.6.3-1.4 0-2l-1-1.8c-.4-.7-.6-1.4-.7-2.2v-2c0-.8 0-1.4-1-1.8l-1-1c-.5-.4-1-1-1.4-1.6L93 71c-.5-.8-1-1-2-1.3h-2c-.7 0-1.5-.2-2.2-.5l-1.8-1c-.7-.4-1.4-.4-2 0l-1.8 1c-.7.3-1.4.5-2.2.5h-2c-.7 0-1.4.5-1.8 1l-1 2-1.6 1.5-1.8 1c-.6.4-1 1-1 1.8v2c0 .8-.2 1.6-.6 2.2l-1 1.8c-.3.6-.3 1.4 0 2l1 1.8c.4.7.6 1.4.7 2.2v2c0 .8 0 1.4 1 1.8l1 1c.5.4 1 1 1.4 1.6l1 1.7c.4 1 1 1 2 2h2c.6 0 1.4 0 2 .5l2 1c.6.4 1.3.4 2 0l1.7-1c.8-.3 1.5-.5 2.3-.5h2c.6 0 1.3-.6 1.7-1l1-2 2-2 1.8-1c.7-.6 1-1 1-2v-2z" mask="url(#b)"/>
  </g>
</svg>
