<svg xmlns="http://www.w3.org/2000/svg" viewBox="0 0 168 171" xmlns:xlink="http://www.w3.org/1999/xlink">
  <defs>
    <path id="a" d="M84.37.75c46.2 0 83.63 38.1 83.63 85.13 0 47-37.44 85.12-83.63 85.12C38.17 171 .75 132.9.75 85.87.75 38.87 38.2.75 84.37.75z"/>
  </defs>
  <g fill="none" fill-rule="evenodd">
    <mask id="b" fill="#fff">
      <use xlink:href="#a"/>
    </mask>
    <use fill="#F5F7FA" xlink:href="#a"/>
    <path fill="#FFF" fill-rule="nonzero" d="M.75.75H168V171H.75z" mask="url(#b)"/>
    <path fill="#4758A9" fill-rule="nonzero" d="M0-1h88v92H0z" mask="url(#b)"/>
    <path fill="#ED5565" fill-rule="nonzero" d="M0 91h168v80H0z" mask="url(#b)"/>
    <path fill="#FFF" d="M37.65 70.35c-1.83 1.3-2.9.57-2.36-1.63l1.94-8.2c.46-2.46-.34-4.97-2.12-6.7l-5.97-5.2c-1.7-1.5-1.25-2.75.98-2.8l8.35-.25c2.4-.2 4.44-1.8 5.2-4.07l2.63-8.97c.64-2.18 1.78-2.2 2.54-.08L52 41.3c.9 2.24 3.03 3.77 5.45 3.92l8.52.1c2.23 0 2.68 1.25 1 2.74l-6.5 5.7c-1.74 1.75-2.47 4.27-1.92 6.68l2.07 7.22c.62 2.18-.42 3-2.33 1.8l-6.94-4.3c-2.13-1.17-4.74-1.08-6.8.23l-6.93 4.93z" mask="url(#b)"/>
  </g>
</svg>
