<svg xmlns="http://www.w3.org/2000/svg" viewBox="0 0 168 168" xmlns:xlink="http://www.w3.org/1999/xlink">
  <defs>
    <circle id="a" cx="84" cy="84" r="84"/>
  </defs>
  <g fill="none" fill-rule="evenodd">
    <mask id="b" fill="#fff">
      <use xlink:href="#a"/>
    </mask>
    <use fill="#FFF" fill-rule="nonzero" xlink:href="#a"/>
    <path fill="#ED5565" d="M0 151.984h168v16.023H0M0 19.984h168v24.024H0m0 19.976h168v24.023H0m0 19.977h168v24.023H0" mask="url(#b)"/>
    <path fill="#4758A9" fill-rule="nonzero" d="M0 0h88v88H0z" mask="url(#b)"/>
    <path fill="#FFCE54" d="M62.22 61.55c-1.04.65-1.61.246-1.27-.9l1.26-4.274c.3-1.286-.096-2.634-1.04-3.556l-3.19-2.84c-.9-.807-.63-1.46.6-1.453l4.63.032c1.304-.048 2.464-.84 2.97-2.048l1.63-4.66c.4-1.13 1.03-1.127 1.4.008l1.56 4.7c.485 1.22 1.62 2.058 2.93 2.16l4.71.2c1.23.056 1.45.714.49 1.464l-3.7 2.88c-1.003.85-1.466 2.175-1.21 3.464l.99 3.83c.3 1.157-.29 1.564-1.32.9l-3.74-2.388c-1.166-.658-2.59-.663-3.76-.01l-3.94 2.484zm1.81 7.882c-.03.01-.06.02-.09.033-1.02.48-2.076.873-3.16 1.176-10.58 2.98-21.59-2.82-24.59-12.95-.564-1.9-.814-3.872-.74-5.852.023-1.988.367-3.958 1.02-5.836 3.48-10.045 14.76-15.565 25.2-12.32 1.066.33 2.103.75 3.1 1.254.03.014.06.026.09.036.353.106.73-.077.86-.42.087-.274-.014-.57-.25-.734-2.52-2.103-5.434-3.684-8.57-4.653-13.1-4.07-27.26 2.86-31.63 15.475-.79 2.27-1.225 4.65-1.29 7.054-.052 2.395.268 4.784.95 7.08 3.76 12.72 17.59 20 30.87 16.266 3.19-.89 6.177-2.397 8.79-4.433.244-.153.357-.45.28-.726-.11-.35-.485-.55-.84-.445zm5.95-6.276c-.41 1.133-1.12 1.154-1.58.048l-1.73-4.117c-.594-1.2-1.752-2.02-3.08-2.184l-4.32-.334c-1.23-.1-1.43-.778-.45-1.5l3.66-2.738c1-.81 1.41-2.145 1.04-3.378l-1.69-4.644c-.4-1.126.1-1.5 1.11-.83l4.23 2.778c1.14.67 2.556.65 3.68-.044l3.84-2.647c1.01-.695 1.6-.31 1.32.856L74.93 48.9c-.24 1.29.238 2.612 1.25 3.45l3.22 2.423c.98.732.77 1.41-.46 1.5l-4.47.347c-1.317.162-2.448 1.012-2.97 2.232l-1.52 4.295z" mask="url(#b)"/>
  </g>
</svg>
