<svg xmlns="http://www.w3.org/2000/svg" viewBox="0 0 168 168">
  <g fill="none" fill-rule="evenodd">
    <circle cx="84" cy="84" r="84" fill="#ED5565" fill-rule="nonzero"/>
    <path fill="#FFF" d="M94.4 98.4c-1.5 1-2.4.4-2-1.4l2-6.7c.4-2 0-4.2-1.5-5.7L88 80c-1.2-1-.8-2.2 1-2.2h7c1.8 0 3.6-1.3 4.3-3l2.4-7.5c.6-1.8 1.5-1.8 2 0l2.4 7.5c1 1.8 2.8 3.2 4.8 3.4l7 .3c1.8 0 2 1 .7 2.3l-5.4 4.5c-1.5 1.5-2.2 3.5-2 5.5l1.7 6c.4 2-.4 2.6-2 1.5l-5.5-3.8c-1.5-1-4-1-5.4 0l-5.8 4zm11.3 11.8h-.2c-1.4.8-3 1.4-4.5 1.8-8.8 2.6-18.3 1-25.5-4.7-7.3-5.6-11.4-14.4-11-23.5 0-10 5.3-19.4 14-24.6 8.6-5.2 19.3-5.5 28.2-.8h.2c0 .2 1 0 1-.5 0-1 0-1-.7-1.7-3.6-3-7.8-5.5-12.3-7-11-3.4-23-1.5-32 5-9 7-15 17.5-15 29-.5 11.4 5 22 14 29s21 9.3 31.7 6c4.6-1.3 9-3.6 12.7-6.6l.4-1-.7-1h-.4z"/>
  </g>
</svg>
