<svg xmlns="http://www.w3.org/2000/svg" viewBox="0 0 168 168">
  <g fill="none" fill-rule="evenodd">
    <circle cx="84" cy="84" r="84" fill="#ED5565" fill-rule="nonzero"/>
    <path fill="#FFCE54" d="M86.2 49.6l7.4 22.6c.3 1 1.2 1.6 2.2 1.6h24c1 0 1.8.6 2 1.6.4 1 0 2-.8 2.6l-19.3 13.8c-.8.6-1 1.7-.8 2.6l7 22.6c0 1 0 2-1 2.4-1 .6-2 .6-3 0l-19.3-14c-.8-.5-2-.5-2.8 0l-19.4 14c-1 .6-2 .6-2.8 0-1-.6-1.3-1.6-1-2.6l8-22.6c.4-1 0-2-.8-2.6L47 78c-.8-.6-1.2-1.7-1-2.6.4-1 1.3-1.6 2.3-1.6h24c1 0 1.8-.7 2-1.6L82 49.6c0-1 1-1.6 2-1.6s2 .6 2.2 1.6z"/>
  </g>
</svg>
