<svg xmlns="http://www.w3.org/2000/svg" viewBox="0 0 168 168">
  <g fill="none" fill-rule="evenodd">
    <circle cx="84" cy="84" r="84" fill="#ED5565" fill-rule="nonzero"/>
    <path fill="#F6BB42" d="M98.24 57.64c-1 .72-1.6.32-1.3-.9l1.1-4.5c.24-1.34-.2-2.72-1.18-3.67l-3.3-2.85c-.92-.8-.68-1.5.55-1.53l4.6-.2c1.4-.1 2.5-1 2.9-2.3l1.5-4.9c.4-1.2 1-1.3 1.4-.1l1.8 4.83c.5 1.25 1.7 2.1 3 2.17l4.7.04c1.2.06 1.5.7.58 1.55L111 48.42c-.98.94-1.38 2.33-1.08 3.65l1.1 4c.34 1.2-.24 1.6-1.3 1l-3.8-2.4c-1.2-.6-2.6-.6-3.74.14L98.3 57.6zm0 66c-1 .72-1.6.32-1.3-.9l1.1-4.5c.24-1.33-.2-2.7-1.18-3.66l-3.3-2.85c-.92-.8-.68-1.5.55-1.54l4.6-.2c1.4-.1 2.5-1 2.9-2.3l1.5-4.9c.4-1.2 1-1.2 1.4-.1l1.8 4.84c.5 1.25 1.7 2.1 3 2.17l4.7.05c1.2 0 1.5.7.58 1.5L111 114.4c-.98.96-1.38 2.34-1.08 3.67l1.1 3.98c.35 1.2-.23 1.62-1.3 1l-3.8-2.4c-1.2-.64-2.6-.6-3.73.13l-3.87 2.7zm25.06-18.84c-1.02.7-1.6.3-1.3-.9l1.08-4.5c.25-1.36-.2-2.73-1.17-3.7l-3.2-2.83c-.9-.8-.7-1.5.6-1.54l4.6-.13c1.3-.1 2.5-.98 2.9-2.23l1.46-4.92c.35-1.2.98-1.2 1.4-.04l1.73 4.9c.5 1.3 1.67 2.1 3 2.2l4.7.1c1.22 0 1.46.7.54 1.5l-3.6 3.1c-.96.98-1.36 2.36-1.06 3.68l1.15 3.96c.34 1.2-.24 1.65-1.3 1l-3.8-2.36c-1.2-.65-2.6-.6-3.74.12l-3.8 2.73zm0-25.16c-1.02.72-1.6.32-1.3-.9l1.08-4.5c.25-1.34-.2-2.72-1.17-3.67l-3.2-2.85c-.9-.8-.7-1.5.6-1.53l4.6-.2c1.3-.1 2.5-1 2.9-2.3l1.46-4.9c.35-1.2.98-1.3 1.4-.1l1.73 4.83c.5 1.25 1.67 2.1 3 2.17l4.7.04c1.22.06 1.46.7.54 1.55l-3.6 3.2c-.97.93-1.37 2.32-1.07 3.64l1.15 3.97c.35 1.2-.23 1.66-1.3 1l-3.8-2.35c-1.2-.62-2.6-.6-3.73.14l-3.8 2.8zm-61.43-26.3l6.2 18.8c.28.8 1.03 1.34 1.88 1.33h20.08c.84 0 1.6.53 1.86 1.33s-.1 1.68-.8 2.17L74.9 88.53c-.7.5-1 1.36-.72 2.16l6.2 18.7c.25.8-.04 1.7-.73 2.1-.7.5-1.6.5-2.3 0L61.17 100c-.7-.5-1.63-.5-2.3 0L42.6 111.6c-.7.5-1.62.5-2.3 0-.7-.48-.98-1.36-.73-2.16l6.2-18.74c.26-.8-.03-1.68-.72-2.17L28.82 77c-.7-.5-.98-1.37-.7-2.17.25-.8 1-1.33 1.85-1.32h20.08c.85 0 1.6-.5 1.87-1.3l6.2-18.8c.28-.8 1.05-1.4 1.88-1.4.85 0 1.6.6 1.87 1.4z"/>
  </g>
</svg>
