<svg xmlns="http://www.w3.org/2000/svg" viewBox="0 0 168 168">
  <g fill="none" fill-rule="evenodd">
    <circle cx="84" cy="84" r="84" fill="#ED5565" fill-rule="nonzero"/>
    <path fill="#FFF" d="M81.4 84.7s-14.4-4-14.4-24C67 41.7 90 36 95.8 36c-10 8.6-2.8 13-2.8 22 0 11.4-21 11.5-11.6 26.7zm3.6-3s-.6-14.8 18.4-21c18.4-6 30.8 14 32.6 19.6-11.3-7-13.3 1.3-22 4C103.2 88 96.6 68 85 81.7zm4 2.5s14-5.2 25.7 11c11.4 15.5-4 33.4-8.6 36.8 3.6-12.8-5-12.2-10.2-19.5C89 103.3 106 91 89.2 84.2zm-1.2 4.5s9.3 11.7-2.4 27.7C74 132 52 123 47.4 119.7c13.2-1 10-9 15.3-16 6.8-9.4 23.8 2.8 25-15zm-4.6.3S75 101.4 56 95.2c-18.5-6-16.7-29.4-15-35 5 12.3 11.6 7 20.2 9.6 11 3.6 4.5 23.4 22 19.2z"/>
  </g>
</svg>
