<svg xmlns="http://www.w3.org/2000/svg" viewBox="0 0 168 168" xmlns:xlink="http://www.w3.org/1999/xlink">
  <defs>
    <circle id="a" cx="84" cy="84" r="84"/>
  </defs>
  <g fill="none" fill-rule="evenodd">
    <mask id="b" fill="#fff">
      <use xlink:href="#a"/>
    </mask>
    <use fill="#FFF" fill-rule="nonzero" xlink:href="#a"/>
    <path fill="#ED5565" fill-rule="nonzero" d="M0 0h168v88H0z" mask="url(#b)"/>
    <path fill="#F5F7FA" d="M81.557 42.5c-.605.41-.957.18-.782-.51l.652-2.57c.15-.774-.116-1.57-.7-2.1l-1.974-1.63c-.56-.46-.416-.86.324-.88l2.763-.07c.775-.046 1.452-.543 1.726-1.27l.866-2.81c.21-.68.587-.7.84-.03l1.04 2.77c.32.716 1.016 1.19 1.8 1.23l2.817.03c.74.01.88.39.33.86l-2.15 1.79c-.58.53-.82 1.33-.64 2.09l.68 2.26c.2.68-.14.94-.77.57l-2.29-1.35c-.71-.37-1.56-.342-2.25.07l-2.29 1.55zM69.4 52.58c-.605.41-.957.18-.782-.51l.652-2.57c.147-.774-.118-1.57-.7-2.1l-1.974-1.62c-.56-.47-.416-.86.324-.88l2.763-.07c.777-.05 1.453-.55 1.726-1.28l.86-2.81c.21-.68.58-.69.84-.02l1.04 2.77c.32.716 1.02 1.19 1.8 1.23l2.82.02c.74.01.88.4.33.86l-2.15 1.79c-.58.53-.82 1.33-.64 2.09l.69 2.26c.2.69-.14.94-.77.57l-2.29-1.35c-.71-.368-1.56-.342-2.25.07l-2.29 1.55zm24.565 0c-.605.41-.957.18-.78-.51l.65-2.57c.147-.774-.118-1.57-.7-2.1l-1.974-1.62c-.56-.47-.41-.86.33-.88l2.77-.07c.78-.05 1.46-.55 1.73-1.28l.867-2.81c.21-.68.59-.69.84-.02l1.04 2.77c.32.716 1.016 1.192 1.8 1.23l2.82.02c.74.01.89.4.33.86l-2.14 1.79c-.58.528-.824 1.33-.64 2.09l.68 2.26c.21.69-.14.94-.77.57l-2.29-1.35c-.71-.368-1.563-.342-2.25.07l-2.292 1.55zM89.728 66.4c-.6.41-.956.18-.78-.51l.65-2.58c.15-.77-.116-1.564-.7-2.09l-1.972-1.63c-.562-.46-.416-.86.324-.88l2.763-.07c.777-.05 1.453-.55 1.726-1.28l.86-2.8c.21-.69.58-.7.84-.03l1.04 2.77c.32.716 1.02 1.19 1.8 1.23l2.82.03c.74 0 .88.39.33.86l-2.15 1.79c-.58.526-.83 1.33-.64 2.09l.69 2.26c.2.68-.14.93-.78.56l-2.29-1.34c-.71-.372-1.56-.35-2.25.06l-2.29 1.56zm-15.147 0c-.6.41-.95.18-.78-.51l.66-2.58c.15-.77-.11-1.564-.7-2.09l-1.97-1.63c-.56-.46-.41-.86.33-.88l2.76-.07c.78-.05 1.456-.55 1.73-1.28l.868-2.8c.21-.69.586-.7.837-.03l1.04 2.77c.32.716 1.017 1.19 1.8 1.23l2.82.03c.74 0 .886.39.327.86l-2.143 1.79c-.58.527-.825 1.33-.64 2.09l.685 2.26c.206.68-.14.93-.77.56l-2.29-1.34c-.71-.372-1.56-.35-2.25.06l-2.3 1.56zm-6.21 1.75c-.03.008-.07.022-.1.04-1.07.558-2.19 1.03-3.35 1.41-11.26 3.68-23.51-2.11-27.34-12.93-1.4-4.085-1.53-8.498-.38-12.66 3.17-11.02 15.05-17.48 26.52-14.43 1.17.313 2.32.72 3.43 1.22l.1.03c.384.11.785-.108.9-.49.083-.3-.044-.62-.31-.78-2.843-2.162-6.084-3.742-9.54-4.65C43.9 21.08 28.99 29.19 25 43.03c-1.456 5.022-1.294 10.375.465 15.3C30.275 71.92 45.65 79.19 59.8 74.57c3.39-1.104 6.53-2.864 9.24-5.18.257-.178.364-.505.264-.8-.14-.374-.55-.57-.93-.44h.007z" mask="url(#b)"/>
  </g>
</svg>
